HIERARCHY
ROOT RootJoint
{
    OFFSET   0.000000   0.000000   0.000000
    CHANNELS 6 Xposition Yposition Zposition Xrotation Yrotation Zrotation
    JOINT pelvis_lowerback
    {
        OFFSET   0.000000   0.093605   0.000000
        CHANNELS 3 Xrotation Yrotation Zrotation
        JOINT lowerback_torso
        {
            OFFSET   0.000000   0.100000   0.000000
            CHANNELS 3 Xrotation Yrotation Zrotation
            JOINT torso_head
            {
                OFFSET   0.000000   0.282350   0.000000
                CHANNELS 3 Xrotation Yrotation Zrotation
                End Site
                {
                    OFFSET   0.000000   0.192650   0.000000
                }
            }
            JOINT rTorso_Clavicle
            {
                OFFSET  -0.001000   0.157500   0.000000
                CHANNELS 3 Xrotation Yrotation Zrotation
                JOINT rShoulder
                {
                    OFFSET  -0.117647   0.000000   0.000000
                    CHANNELS 3 Xrotation Yrotation Zrotation
                    JOINT rElbow
                    {
                        OFFSET  -0.245000   0.000000   0.000000
                        CHANNELS 3 Xrotation Yrotation Zrotation
                        JOINT rWrist
                        {
                            OFFSET  -0.240000   0.000000   0.000000
                            CHANNELS 3 Xrotation Yrotation Zrotation
                            End Site
                            {
                                OFFSET  -0.116353  -0.002500   0.000000
                            }
                        }
                    }
                }
            }
            JOINT lTorso_Clavicle
            {
                OFFSET   0.001000   0.157500   0.000000
                CHANNELS 3 Xrotation Yrotation Zrotation
                JOINT lShoulder
                {
                    OFFSET   0.117647   0.000000   0.000000
                    CHANNELS 3 Xrotation Yrotation Zrotation
                    JOINT lElbow
                    {
                        OFFSET   0.245000   0.000000   0.000000
                        CHANNELS 3 Xrotation Yrotation Zrotation
                        JOINT lWrist
                        {
                            OFFSET   0.240000   0.000000   0.000000
                            CHANNELS 3 Xrotation Yrotation Zrotation
                            End Site
                            {
                                OFFSET   0.116353  -0.002500   0.000000
                            }
                        }
                    }
                }
            }
        }
    }
    JOINT rHip
    {
        OFFSET  -0.100000  -0.051395   0.000000
        CHANNELS 3 Xrotation Yrotation Zrotation
        JOINT rKnee
        {
            OFFSET   0.000000  -0.410000   0.000000
            CHANNELS 3 Xrotation Yrotation Zrotation
            JOINT rAnkle
            {
                OFFSET   0.000000  -0.390000   0.000000
                CHANNELS 3 Xrotation Yrotation Zrotation
                JOINT rToeJoint
                {
                    OFFSET   0.000000  -0.050000   0.130000
                    CHANNELS 3 Xrotation Yrotation Zrotation
                    End Site
                    {
                        OFFSET  -0.010000   0.002000   0.060000
                    }
                }
            }
        }
    }
    JOINT lHip
    {
        OFFSET   0.100000  -0.051395   0.000000
        CHANNELS 3 Xrotation Yrotation Zrotation
        JOINT lKnee
        {
            OFFSET   0.000000  -0.410000   0.000000
            CHANNELS 3 Xrotation Yrotation Zrotation
            JOINT lAnkle
            {
                OFFSET   0.000000  -0.390000   0.000000
                CHANNELS 3 Xrotation Yrotation Zrotation
                JOINT lToeJoint
                {
                    OFFSET   0.000000  -0.050000   0.130000
                    CHANNELS 3 Xrotation Yrotation Zrotation
                    End Site
                    {
                        OFFSET   0.010000   0.002000   0.060000
                    }
                }
            }
        }
    }
}
MOTION
Frames: 12
Frame Time:   0.008333
 -2.294706   0.906167   3.971093  12.838579 -13.783632   7.535641  11.172557  -1.013936  -0.578399   3.726785   1.010564   1.187295  -1.129017   0.056754  -0.765290   5.253965 -16.062083   2.485659  34.081768   4.285240  41.118063 -179.992374  79.164132 179.992651  -6.631511   9.008168   7.880108   6.933674  12.798869   0.598949  43.721051 -10.794617 -37.917885 179.999830 -79.253596 179.999909  -4.004691  -9.482230  -9.549704 -22.932584  -4.733155 -16.479362  18.147676   0.000043   0.000038  -6.046988  -6.136239   6.409342  -1.294708  -0.000577  -0.001958 -16.921703   6.963441   0.943642  17.447424  -0.000490  -0.000280  -9.039949   9.287634  -0.844802  -4.382216  -0.000210   0.001644
 -2.295089   0.906046   3.970618  12.870672 -13.807075   7.579016  11.248799  -0.939168  -0.650923   3.668005   1.039739   1.164457  -1.153373   0.013033  -0.716723   5.280023 -16.034325   2.443253  34.059610   4.318808  41.219151 -179.993494  79.263295 179.993761  -6.595621   8.968993   7.814847   6.940534  12.789077   0.703230  43.647968 -10.782863 -37.875768 -179.999858 -79.140643 -179.999755  -3.967759  -9.485660  -9.608041 -22.771716  -4.739520 -16.436780  17.761866   0.000182  -0.000053  -6.198941  -6.265760   6.399070  -0.794398  -0.000789  -0.001878 -17.030641   6.879547   0.979794  17.560715  -0.000478  -0.000320  -9.036349   9.204923  -0.882615  -4.392358  -0.000166   0.001332
 -2.295443   0.905900   3.970161  12.929978 -13.860890   7.620916  11.295150  -0.861967  -0.754073   3.591322   1.070772   1.132449  -1.182590  -0.027346  -0.670783   5.314964 -16.019407   2.401562  34.048232   4.348289  41.320387 -179.994656  79.349290 179.994913  -6.564944   8.948893   7.781393   6.945124  12.792260   0.825548  43.579243 -10.758593 -37.830627 -179.999621 -79.027288 -179.999492  -3.931688  -9.490758  -9.624686 -22.614390  -4.745798 -16.375554  17.320566   0.000329  -0.000051  -6.338608  -6.383785   6.389374  -0.334706  -0.000954  -0.001821 -17.139861   6.786088   1.031448  17.638981  -0.000450  -0.000347  -9.040809   9.117621  -0.914538  -4.446946  -0.000121   0.001179
 -2.295722   0.905726   3.969710  12.995091 -13.934082   7.659687  11.331266  -0.792265  -0.874220   3.511335   1.097221   1.087915  -1.213061  -0.064932  -0.630896   5.349701 -16.009415   2.359066  34.039532   4.373525  41.415108 -179.995768  79.427745 179.996017  -6.537035   8.939639   7.753596   6.948345  12.797246   0.949809  43.514815 -10.730513 -37.784726 -179.999564 -78.921017 -179.999413  -3.897026  -9.496615  -9.617360 -22.468950  -4.752290 -16.308839  16.878898   0.000448   0.000030  -6.465792  -6.493401   6.379097   0.086047  -0.001051  -0.001792 -17.242876   6.695315   1.087412  17.704586  -0.000417  -0.000364  -9.050862   9.035106  -0.944791  -4.560507  -0.000076   0.001191
 -2.295820   0.905931   3.969292  13.031954 -13.970759   7.603533  11.398913  -0.742578  -0.914987   3.440576   1.112398   1.066168  -1.242678  -0.100831  -0.594235   5.374814 -15.992917   2.323490  34.025313   4.394409  41.497376 -179.996658  79.510212 179.996902  -6.505550   8.899650   7.689188   6.941900  12.785709   1.032616  43.443567 -10.721647 -37.750758 -179.999665 -78.824612 -179.999517  -3.863176  -9.502428  -9.607535 -22.390275  -4.707240 -16.190727  16.631202   0.000391  -0.000118  -6.287166  -6.553523   6.387788   0.462184  -0.000944  -0.001422 -17.339421   6.613377   1.200541  17.761899  -0.000364  -0.000334  -9.021939   8.973233  -0.971380  -4.449956  -0.000070   0.000801
 -2.295857   0.906152   3.969027  13.046603 -13.962788   7.551728  11.443964  -0.717479  -0.991195   3.381659   1.107913   1.044875  -1.266086  -0.134902  -0.556217   5.409576 -15.991835   2.292340  34.021454   4.412205  41.582154 -179.997472  79.583215 179.997717  -6.476970   8.868065   7.653397   6.937632  12.775188   1.129575  43.379983 -10.708389 -37.711457 -179.999737 -78.731116 -179.999602  -3.831039  -9.507711  -9.604083 -22.279712  -4.692790 -16.103345  16.383305   0.000327  -0.000262  -6.132915  -6.627972   6.368643   0.416227  -0.000757  -0.001138 -17.414728   6.530313   1.283048  17.814544  -0.000311  -0.000289  -9.001259   8.905465  -0.994433  -4.238088  -0.000060   0.000413
 -2.295827   0.906343   3.968885  13.052428 -13.934065   7.494280  11.470087  -0.700974  -1.081533   3.321568   1.094734   1.015837  -1.288725  -0.166737  -0.522363   5.448943 -16.000803   2.261690  34.023896   4.424519  41.663552 -179.998215  79.650349 179.998468  -6.450487   8.842419   7.631150   6.935098  12.767604   1.230785  43.322823 -10.690828 -37.670404 -179.999772 -78.643506 -179.999662  -3.800069  -9.512879  -9.598835 -22.156718  -4.694080 -16.027030  16.144574   0.000259  -0.000382  -5.997007  -6.709096   6.346607   0.382137  -0.000609  -0.000911 -17.482010   6.465187   1.375401  17.870108  -0.000270  -0.000235  -8.963095   8.861550  -1.007619  -3.847823  -0.000146   0.000129
 -2.295890   0.906555   3.968970  13.104740 -13.939621   7.373250  11.381257  -0.676651  -1.158567   3.278836   1.115984   0.993111  -1.306557  -0.196911  -0.433401   5.483611 -16.031160   2.204669  34.085558   4.465415  41.804364 -179.998996  79.729819 179.999242  -6.452474   8.812406   7.601825   6.924420  12.813958   1.341572  43.227595 -10.638799 -37.652035 -179.999385 -78.556188 -179.999336  -3.783349  -9.512867  -9.668672 -21.973939  -4.717733 -15.856597  15.731914   0.000216  -0.000588  -5.775379  -6.784268   6.389165   0.339971  -0.000468  -0.000730 -17.497036   6.375388   1.549865  17.729673  -0.000136  -0.000134  -9.007409   8.805639  -0.962901  -3.534057  -0.000315  -0.000217
 -2.295929   0.906741   3.969158  13.172281 -13.954861   7.244016  11.264462  -0.656554  -1.259173   3.216527   1.135779   0.965321  -1.327987  -0.224884  -0.347946   5.527258 -16.073329   2.154555  34.152968   4.501609  41.944812 -179.999764  79.801135 -179.999998  -6.456919   8.787157   7.598476   6.915219  12.872131   1.459263  43.140275 -10.578474 -37.633943 -179.999095 -78.473662 -179.999102  -3.767945  -9.514113  -9.701457 -21.791385  -4.746470 -15.673792  15.298544   0.000180  -0.000732  -5.550634  -6.850743   6.426998   0.305447  -0.000361  -0.000585 -17.499051   6.283240   1.724781  17.576227  -0.000032  -0.000029  -9.059445   8.748472  -0.922826  -3.332253  -0.000357  -0.000401
 -2.295905   0.906884   3.969420  13.243036 -13.973497   7.111922  11.136074  -0.642528  -1.377080   3.143873   1.149007   0.926508  -1.351647  -0.251099  -0.270358   5.572261 -16.120089   2.107671  34.219564   4.532954  42.078561 179.999527  79.866488 -179.999290  -6.462162   8.768127   7.601828   6.906808  12.930140   1.576722  43.059658 -10.517148 -37.614736 -179.998946 -78.396871 -179.999000  -3.753211  -9.515981  -9.715437 -21.613818  -4.776255 -15.492538  14.874070   0.000136  -0.000819  -5.335984  -6.911928   6.459735   0.278102  -0.000281  -0.000468 -17.489200   6.192580   1.882240  17.433756   0.000022   0.000059  -9.120370   8.689041  -0.888286  -3.271608  -0.000306  -0.000392
 -2.295811   0.906976   3.969729  13.311585 -13.985075   6.973442  11.003929  -0.636713  -1.505277   3.066227   1.153875   0.878796  -1.376148  -0.275821  -0.199768   5.616267 -16.168574   2.062658  34.283459   4.560056  42.204306 179.998912  79.926878 -179.998669  -6.467752   8.753577   7.603456   6.897637  12.983251   1.690242  42.983641 -10.458555 -37.594621 -179.998909 -78.325238 -179.999005  -3.739011  -9.518114  -9.720197 -21.440913  -4.811436 -15.314466  14.468444   0.000083  -0.000876  -5.135553  -6.973371   6.489755   0.256501  -0.000220  -0.000375 -17.476627   6.113924   2.034475  17.294885   0.000046   0.000107  -9.184113   8.644188  -0.852286  -3.307694  -0.000235  -0.000282
 -2.295634   0.907019   3.970075  13.376517 -13.990540   6.830236  10.871929  -0.636561  -1.641965   2.986736   1.152220   0.822422  -1.400579  -0.299067  -0.135498   5.658330 -16.216981   2.019135  34.343970   4.583662  42.321811 179.998404  79.982912 -179.998150  -6.473394   8.741890   7.601446   6.887389  13.030531   1.797341  42.911343 -10.404233 -37.574436 -179.998953 -78.258396 -179.999087  -3.725318  -9.520347  -9.720110 -21.273739  -4.850289 -15.142145  14.084234   0.000022  -0.000906  -4.949165  -7.034621   6.517699   0.239906  -0.000173  -0.000300 -17.462788   6.042985   2.181213  17.164087   0.000050   0.000128  -9.251889   8.606057  -0.817658  -3.429696  -0.000167  -0.000141
